<?xml version="1.0" encoding="utf-8"?>
<!-- Generator: Adobe Illustrator 22.1.0, SVG Export Plug-In . SVG Version: 6.00 Build 0)  -->
<svg version="1.1" id="Layer_1" xmlns="http://www.w3.org/2000/svg" xmlns:xlink="http://www.w3.org/1999/xlink" x="0px" y="0px"
	 viewBox="0 0 160 160" style="enable-background:new 0 0 160 160;" xml:space="preserve">
<style type="text/css">
	.st0{fill:#989898;}
	.st1{filter:url(#Adobe_OpacityMaskFilter);}
	.st2{fill:#FFFFFF;}
	.st3{mask:url(#mask-2_3_);}
</style>
<g>
	<defs>
		<filter id="Adobe_OpacityMaskFilter" filterUnits="userSpaceOnUse" x="6.7" y="12.3" width="146.3" height="140.8">
			<feColorMatrix  type="matrix" values="1 0 0 0 0  0 1 0 0 0  0 0 1 0 0  0 0 0 1 0"/>
		</filter>
	</defs>
	<mask maskUnits="userSpaceOnUse" x="6.7" y="12.3" width="146.3" height="140.8" id="mask-2_3_">
		<g class="st1">
			<polygon id="path-1_3_" class="st2" points="4.2,155.1 155.2,155.1 155.2,10.2 4.2,10.2 			"/>
		</g>
	</mask>
	<g id="Fill-1_2_" class="st3">
		<g>
			<path class="st0" d="M86.3,153.1c-13.3,0-26.6-3.5-38.5-10h-0.4c-0.3,0-0.6-0.1-0.8-0.2c-16.9-9.4-33.1-28.8-37.7-45.1
				c-4.4-15.5-2-32.2,7-48.1c19.7-34.9,64-47.6,98.8-28.3c19.4,10.8,30.2,21.5,35.2,34.8c5.8,15.6,3.6,34.9-7,60.5
				c-6.5,15.7-18.5,27-34.7,32.6C100.9,151.9,93.9,153.1,86.3,153.1z M47.8,139.7h0.4c0.3,0,0.6,0.1,0.8,0.2
				c11.5,6.4,24.4,9.8,37.3,9.8c7.4,0,13.8-1.1,20.8-3.6c15.3-5.3,26.6-16,32.7-30.8c21.3-51.7,5.6-73.2-26.7-91.2
				c-33.2-18.5-75.5-6.4-94.3,27c-8.5,15.2-10.9,30.9-6.7,45.6C16.4,112.3,31.7,130.7,47.8,139.7z"/>
		</g>
	</g>
	<g>
		<path class="st0" d="M121.7,85c0.9,0,2-1,2-1.9c0-0.8-1.1-2-2.1-2h-1.2c-4.6,0.4-8.3,3.1-11.6,5.9l-0.3,0.2
			c-2.9,2.7-4.6,4.1-6.7,4.5l-0.3,0.1l-0.8,0.1c-1.1,0-2.2-0.4-3.4-1.1c-1.3-0.7-2.8-2-4.9-4c-3.1-2.9-7.2-5.9-12.7-5.9h-1.2
			c-5.3,0.4-9.4,4-11.6,5.9l-0.3,0.2c-2.9,2.6-4.6,4.1-6.7,4.5l-0.3,0.1l-0.8,0.1c-1,0-2.1-0.3-3.2-1l-0.9-0.5
			c-0.9-0.5-1.6-1.2-2.6-2.1c-0.4-0.4-0.9-0.8-1.5-1.3c-3.3-3.1-7.4-6.1-12.8-6.1c-0.9,0-2,0.9-2,2c0,0.5,0.2,1,0.6,1.3
			c0.4,0.3,0.8,0.5,1.2,0.5c0,0,0,0,0,0c4.7,0,7.4,2.4,10.3,5l0.7,0.7c2.6,2.4,5.6,5.2,10,5.2h1.1c3.7-0.3,6.4-2.9,8.8-5.1l0.8-0.8
			c1.7-1.6,3.6-3.2,5.8-4.1l0.5-0.2c0.2-0.1,0.4-0.2,0.6-0.2c0.3-0.1,0.7-0.2,1-0.2L78,85l0.6,0c0.4-0.1,0.8-0.1,1.2-0.1
			c4.6,0,7.3,2.4,10.1,5c0.7,0.6,1.5,1.4,2.5,2.3c2.6,2.2,5,3.7,8.3,3.7h1.1c3.7-0.3,6.4-2.9,8.8-5.1l0.8-0.7
			c1.7-1.6,3.6-3.2,5.8-4.1l0.5-0.2c0.2-0.1,0.4-0.2,0.6-0.2c0.3-0.1,0.7-0.2,1-0.2l0.5-0.2l0.6,0C120.9,85.1,121.3,85,121.7,85z"/>
		<path class="st0" d="M123.7,107.5c0-0.4-0.3-0.9-0.7-1.3c-0.4-0.4-0.9-0.5-1-0.5c-5.6,0-9.7,3-12.9,6c-3.4,3.1-5.4,4.9-8.2,4.9
			c-2.8,0-5.1-1.9-8.3-4.9c-3.4-3-7.2-6-12.7-6c-5.5,0-9.5,3-12.7,6c-3.4,3.1-5.5,4.9-8.2,4.9c-2.8,0-5.1-1.9-8.3-4.9
			c-3.2-3-7.2-6-12.7-6c-0.5,0-1,0.2-1.3,0.5c-0.4,0.4-0.6,0.9-0.6,1.3c0,1,1.1,2,2,2c4.7,0,7.3,2.4,10.1,5l0.7,0.7
			c2.6,2.4,5.6,5.2,10,5.2c4.4,0,7.4-2.7,10-5.1l0.8-0.7c2.8-2.6,5.5-5,10.1-5c4.7,0,7.3,2.4,10.1,5l0.7,0.7c2.6,2.4,5.6,5.2,10,5.2
			c4.4,0,7.4-2.7,10-5.1l0.8-0.7c2.7-2.5,5.5-5,10.2-5C122.6,109.5,123.7,108.4,123.7,107.5z"/>
		<path class="st0" d="M123,57.3l-0.1-0.1c-0.1-0.1-0.2-0.2-0.4-0.2l-0.8-0.2l-1.2,0c-4.9,0.4-8.7,3.3-11.5,5.9l-0.3,0.3
			c-2.9,2.6-4.6,4.1-6.7,4.5l-0.3,0.1l-0.8,0.1c-0.8,0-1.5-0.2-2.1-0.4l-0.4-0.2c-1.2-0.6-2.4-1.5-3.5-2.6c-0.7-0.5-1.5-1.2-2.2-2
			c-2.9-2.6-7-5.8-12.6-5.8h-1.2c-4.9,0.4-8.7,3.3-11.5,5.9L66.8,63c-2.9,2.6-4.6,4.1-6.7,4.5l-0.3,0.1L59,67.7
			c-0.8,0-1.5-0.2-2.1-0.4c-0.6-0.2-1-0.5-1.4-0.7l-0.4-0.2c-1-0.6-1.8-1.4-2.8-2.2c-0.4-0.4-0.9-0.8-1.5-1.3
			c-3.1-2.8-7.2-5.9-12.8-5.9h-0.5c-0.3,0-0.8,0.3-1.2,0.7c-0.3,0.4-0.5,0.8-0.4,1.1l0,0.2l0,0.2c0,0.3,0.3,0.7,0.4,0.8
			c0.4,0.4,0.9,0.6,1.4,0.6l0.1,0c4.4,0,7,2,10.1,4.9l0.7,0.7c2.6,2.4,5.6,5.2,10,5.2h1.1c3.7-0.3,6.4-2.9,8.8-5.1l0.8-0.8
			c2.5-2.2,4.8-4.4,8.6-4.9l0.4,0c0.4-0.1,0.8-0.1,1.2-0.1c4.4,0,7,2,10.1,4.9c0.7,0.6,1.5,1.4,2.4,2.3c2.6,2.2,5,3.7,8.3,3.7h1.1
			c3.7-0.3,6.4-2.9,8.8-5.1l0.8-0.7c2.5-2.2,4.8-4.4,8.6-4.9l0.4,0c0.7-0.1,1.6-0.1,1.8-0.2l0.5-0.3c0.5-0.3,0.9-1,0.9-1.5
			c0-0.3,0-0.5-0.1-0.6C123.5,57.9,123.4,57.7,123,57.3z"/>
	</g>
</g>
</svg>
