<?xml version="1.0" encoding="utf-8"?>
<!-- Generator: Adobe Illustrator 22.1.0, SVG Export Plug-In . SVG Version: 6.00 Build 0)  -->
<svg version="1.1" id="Layer_1" xmlns="http://www.w3.org/2000/svg" xmlns:xlink="http://www.w3.org/1999/xlink" x="0px" y="0px"
	 viewBox="0 0 160 160" style="enable-background:new 0 0 160 160;" xml:space="preserve">
<style type="text/css">
	.st0{fill:#989898;}
	.st1{filter:url(#Adobe_OpacityMaskFilter);}
	.st2{fill:#FFFFFF;}
	.st3{mask:url(#mask-2_3_);}
</style>
<g>
	<path class="st0" d="M97.5,151c-13.9,0-23.6-7.6-23.8-7.7l-52.8-35.8c-0.1-0.1-0.2-0.1-0.2-0.2c-4.9-4.9-2.9-10.5-1.2-12.8
		c4.1-5.7,11.5-3.2,11.8-3.1c0.1,0,0.2,0.1,0.3,0.1l31.2,17.5c0.2,0,0.4,0.1,0.6,0.2l32.4,19.2c1.8,1.3,2.5,0.6,2.5,0.6
		c0.1-0.1,0.1-0.1,0.2-0.2c0.4-0.3,0-1.1-0.2-1.4l-10.5-9c-0.1-0.1-0.2-0.2-0.3-0.4l-1.3-1.9c-0.4-0.6-0.4-1.3,0-1.8
		s1.1-0.8,1.7-0.7l1.8,0.4c0.1,0,0.3,0.1,0.4,0.1l19.4,9.9c3,1.8,4.3,0.5,4.5,0.4c0.3-0.3,0.3-0.5,0.3-0.7c-0.1-0.7-0.9-1.6-1.4-2
		l-20-11.6c-0.7-0.4-1-1.2-0.7-1.9l0.2-0.7c0.2-0.7,0.9-1.2,1.7-1.2l1.3,0.1c0.2,0,0.4,0,0.5,0.1l23.6,9.2c2,0.5,2.7-0.5,2.7-0.5
		c0-0.1,0.1-0.2,0.1-0.2c0.7-0.9-0.3-2-0.7-2.3l-27.1-11.6c-0.4-0.2-0.7-0.5-0.9-0.9c-0.2-0.4-0.2-0.9,0-1.3l0.3-0.8
		c0.3-0.7,1.1-1.1,1.9-1l18.8,4c3.9,1,4.7-0.6,4.7-0.7c0.2-0.4,0.1-0.6,0.1-0.7c-0.3-0.8-1.9-1.6-2.8-1.8L87.6,90
		c-3.1-0.9-4-2.3-4.3-3c-1.3-2.7,0.5-4.9,2-5.7l14.3-6.6c0.8-0.4,1.3-0.8,1.5-1.3c0.3-0.8-0.1-1.8-0.1-1.8c-0.5-1.4-1.9-1-2.4-0.9
		L61.2,82.9c-0.1,0-0.2,0.1-0.3,0.1c-1.2,0.1-2.2-0.3-2.7-1c-0.2-0.2-0.4-0.4-0.5-0.6l-16-38.1c-2.3-3.6-3.1-6.9-2.3-10
		c1.1-4.1,4.7-6,4.9-6.1c6.9-2.7,11.5,2.2,12.9,5.1l15.3,31.6l-13-46.9c-1.3-2.6-1.5-5-0.7-7.3C60,5.6,64,3.8,64.2,3.7
		c6.7-2.2,10.9,2.4,12.2,5.2c0,0.1,0.1,0.1,0.1,0.2l12.9,41.6l-4.7-32.2c-2.6-7.6,3.1-12,6.4-13.3c0.1,0,0.2-0.1,0.3-0.1
		c7-1.1,10.5,4.5,11.4,7.7l8.3,43.6l1.2-17.4c-1-4.5-0.5-8.1,1.4-10.6c2.3-3,5.7-3.3,5.9-3.3c2.3-0.1,4.2,0.6,5.7,2
		c2.6,2.6,2.7,6.7,2.7,7.5l0.8,7.6c0.2,10.2,2,20.7,4.2,33.9c1.5,8.9,3.2,18.9,4.7,30.6c3.6,28.3-16.2,37-18.5,37.9
		C111.4,149.3,104,151,97.5,151z M22.9,104.8l52.8,35.8c0.9,0.7,19.4,15,42,0.9c0.1-0.1,0.2-0.1,0.3-0.2c0.8-0.3,19.9-7.4,16.5-34.4
		c-1.5-11.6-3.2-21.6-4.7-30.5c-2.3-13.4-4.1-23.9-4.3-34.3l-0.8-7.5c0-0.1,0-0.1,0-0.2c0,0,0.1-3.4-1.7-5.2
		c-0.8-0.8-1.8-1.1-3.2-1.1c0,0-2.1,0.2-3.4,2c-1.3,1.7-1.5,4.5-0.7,8.1c0,0.2,0,0.3,0,0.5l-1.5,20.2c0,0.3-0.1,0.6-0.3,0.9
		l-1.2,1.6c-0.3,0.4-0.8,0.6-1.2,0.7c-0.5,0.1-1-0.2-1.3-0.5l-1.5-1.6c-0.2-0.2-0.4-0.5-0.4-0.8l-8.7-45.8c-0.1-0.5-1.9-5.9-7.4-5.2
		c-1.1,0.5-6.5,3.1-4.3,9.2c0,0.1,0.1,0.2,0.1,0.3l5.7,38.6c0,0.3,0,0.6-0.1,0.9l-0.9,2.1c-0.2,0.5-0.6,0.8-1.2,1
		c-0.5,0.1-1.1,0-1.5-0.4l-1.2-1.1c-0.2-0.2-0.4-0.5-0.5-0.7l-14.9-48c-0.4-0.8-2.9-5-8-3.4l0,0c0,0-2.7,1.4-3.6,3.9
		c-0.5,1.4-0.3,3.1,0.6,4.9c0,0.1,0.1,0.2,0.1,0.3l14,50.5c0.1,0.3,0.1,0.6,0,0.9l-0.7,2.1c-0.2,0.5-0.5,0.9-1,1.1
		c-0.5,0.2-1,0.1-1.5-0.2l-1.8-1.2c-0.3-0.2-0.5-0.4-0.6-0.7L54.1,33.7c-0.3-0.6-3.1-5.7-8.6-3.5l0,0c0,0-2.3,1.3-3,4
		c-0.5,2.1,0.1,4.6,1.9,7.4c0.1,0.1,0.1,0.2,0.1,0.3l15.8,37.7c0,0,0.1,0.1,0.1,0.1l36.9-12.1c2-0.7,5.3-0.5,6.5,2.8
		c0,0,0.9,2,0.2,4.2c-0.3,1-1.2,2.3-3.2,3.3l-14.1,6.6c-0.3,0.2-0.9,0.7-0.5,1.4c0,0.1,0.1,0.1,0.1,0.2c0.1,0.1,0.6,0.6,2.1,1
		l29.2,7.9c0.4,0.1,3.8,1.2,4.9,3.7c0.5,1.1,0.4,2.3-0.1,3.4c0,0.1-1.8,4.3-8.5,2.5l-6.3-1.3l15.6,6.6c0.1,0.1,0.3,0.1,0.4,0.2
		c1.4,1.1,3.6,4,1.5,7c-0.4,0.7-2.3,3.2-6.6,2l-11.9-4.6l8.1,4.7c0.1,0,0.1,0.1,0.2,0.1c0.3,0.2,2.5,2,2.7,4.4
		c0.1,1.2-0.3,2.3-1.1,3.2c-0.1,0.1-3.1,3.5-8.5,0.3l-12.7-6.4l5.4,4.6c0.1,0.1,0.2,0.2,0.3,0.3c1.1,1.5,1.8,4.3-0.3,6
		c-1,1-3.6,2.1-6.7-0.2l-31.6-18.7c-0.2,0-0.4-0.1-0.6-0.2L30,94.6c-0.8-0.3-5.4-1.5-7.9,2C21.8,97,19.1,100.9,22.9,104.8z M86.4,86
		C86.4,86,86.4,86,86.4,86C86.4,86,86.4,86,86.4,86z M86.4,86C86.4,86,86.4,86,86.4,86C86.4,86,86.4,86,86.4,86z M86.4,86
		C86.4,86,86.4,86,86.4,86C86.4,86,86.4,86,86.4,86z M86.4,86C86.4,86,86.4,86,86.4,86C86.4,86,86.4,86,86.4,86z M86.4,86L86.4,86
		L86.4,86z M86.3,85.8L86.3,85.8L86.3,85.8z M60.9,80.2C60.9,80.2,60.9,80.2,60.9,80.2C60.9,80.2,60.9,80.2,60.9,80.2z M60.9,80.1
		C60.9,80.1,60.9,80.1,60.9,80.1C60.9,80.1,60.9,80.1,60.9,80.1z"/>
</g>
</svg>
