<?xml version="1.0" encoding="utf-8"?>
<!-- Generator: Adobe Illustrator 22.1.0, SVG Export Plug-In . SVG Version: 6.00 Build 0)  -->
<svg version="1.1" id="Layer_1" xmlns="http://www.w3.org/2000/svg" xmlns:xlink="http://www.w3.org/1999/xlink" x="0px" y="0px"
	 viewBox="0 0 160 160" style="enable-background:new 0 0 160 160;" xml:space="preserve">
<style type="text/css">
	.st0{fill:#989898;}
	.st1{filter:url(#Adobe_OpacityMaskFilter);}
	.st2{fill:#FFFFFF;}
	.st3{mask:url(#mask-2_3_);}
</style>
<g>
	<path class="st0" d="M100.1,79.5V63.8c0-5.3-2.3-10.2-6.4-13.6l-2.2-1.8v-1.9c0.4-0.3,0.6-0.8,0.6-1.3l0.1-6.7
		c0-0.9-0.9-1.8-1.8-1.8H79.7c-0.9,0-1.8,0.9-1.8,1.8v6.6c0,0.5,0.2,0.9,0.6,1.3l0.1,0.1v1.9l-2.2,1.8c-4.1,3.4-6.4,8.3-6.4,13.6
		v15.7c0,3.3,0.6,6.5,2,9.7l2.1,3.8L74,93.6c-0.5,1.6-1,2.9-1.4,4.1l-0.1,0.3c-1.5,4.3-2.4,6.8-2.4,13.5v7.3c0,3.3,2.7,5.9,5.9,5.9
		h18.2c3.3,0,5.9-2.7,5.9-5.9v-7.3c0-6.4-0.8-9-2.2-13l-0.4-1.1c-0.4-1.1-0.8-2.3-1.3-3.7L96,93l2.2-4
		C99.5,86,100.1,82.8,100.1,79.5z M81.5,40.4h7.1v3h-7.1V40.4z M78.8,53l2.8-2.3c0.4-0.3,0.6-0.8,0.6-1.3l0-2.5H88v2.3
		c0,0.5,0.2,0.9,0.6,1.3l2.9,2.5c2.8,2.4,4.6,5.7,5,9.3H73.8C74.1,58.7,75.9,55.4,78.8,53z M73.7,65.9h22.8v11.3H73.7V65.9z
		 M95.2,87.6L92.8,92c-0.2,0.4-0.3,0.9-0.1,1.3l0.4,1.3c0.5,1.5,0.9,2.7,1.3,3.8l0.4,1.2c1.4,3.9,2,6.1,2,11.9v7.3
		c0,1.4-1.2,2.6-2.6,2.6H76c-1.4,0-2.6-1.2-2.6-2.6v-7.3c0-6.1,0.7-8.2,2.2-12.4l0.1-0.4c0.4-1.2,0.9-2.5,1.4-4.1l0.4-1.3
		c0.1-0.4,0.1-0.9-0.1-1.3l-2.4-4.3c-1-2.3-1.5-4.7-1.6-7.2h23.4C96.7,83,96.1,85.4,95.2,87.6z"/>
	<path class="st0" d="M88.9,109.5h2.4c1,0,1.8-0.8,1.8-1.8c0-0.9-0.9-1.8-1.8-1.8h-2.4c-1,0-1.8,0.8-1.8,1.8
		C87.1,108.6,88,109.5,88.9,109.5z"/>
	<path class="st0" d="M82.2,147.2c-16.2-0.5-31.4-7.1-42.9-18.6C23.2,112.6,17,88.9,23,67v0l3.9,9.7c0.4,1.1,1.7,1.7,2.9,1.2
		c1.1-0.4,1.7-1.7,1.2-2.8l-6.1-15.2c-0.3-0.6-0.8-1.1-1.4-1.3c-0.5-0.2-1.1-0.1-1.8,0.3L8.6,69c-0.5,0.4-0.8,0.9-0.8,1.5
		C7.7,71,7.8,71.6,8.2,72c0.4,0.5,0.9,0.8,1.4,0.8c0.6,0.1,1.2-0.1,1.6-0.4l7.3-5.7c-6,23.2,0.7,48.1,17.7,65.1
		c12.2,12.2,28.5,19.3,45.9,19.8c1.2,0,2.2-0.9,2.2-2.1c0-0.6-0.2-1.1-0.6-1.6C83.4,147.5,82.8,147.2,82.2,147.2z"/>
	<path class="st0" d="M144,51.7c-0.3-0.5-0.7-0.9-1.3-1.1c-0.6-0.2-1.2-0.1-1.7,0.2c-0.5,0.3-0.9,0.7-1.1,1.3
		c-0.2,0.6-0.1,1.2,0.2,1.7c13.1,24.4,8.6,55.2-11.1,74.9c-8,8-18,13.7-28.9,16.5l6.4-8.2c0.4-0.5,0.5-1,0.5-1.6
		c-0.1-0.6-0.4-1.1-0.8-1.5c-0.9-0.7-2.3-0.6-3.1,0.4l-10.3,13.4c-0.2,0.2-0.3,0.4-0.2,0.6l0,0.3c0,0.1,0,0.3,0.1,0.4l0.1,0.4
		c0.1,0.3,0.3,0.5,0.5,0.6c0.1,0.2,0.3,0.4,0.5,0.5l15.4,6.2c0.3,0.1,0.5,0.2,0.8,0.2c0.9,0,1.7-0.5,2-1.4c0.2-0.5,0.2-1.1,0-1.7
		c-0.2-0.5-0.7-1-1.2-1.2l-8.6-3.5c11.3-3.1,21.6-9.1,30-17.4c10.5-10.5,17.2-23.8,19.2-38.5C153.4,79,150.7,64.3,144,51.7z"/>
	<path class="st0" d="M27.3,51c0.3,0.2,0.7,0.3,1.1,0.3c0.2,0,0.3,0,0.5-0.1c0.6-0.1,1.1-0.5,1.4-1c2.6-4.1,5.6-8,9.1-11.4
		c12-12,27.9-18.6,44.9-18.6c17,0,32.9,6.6,44.9,18.5l0.3,0.3l-10.3-1.5c-1.2-0.2-2.3,0.7-2.5,1.9c-0.2,1.2,0.7,2.3,1.9,2.5
		l16.4,2.3c0.5,0,1.1-0.1,1.7-0.6c0.5-0.5,0.7-1.2,0.6-1.9l-2.3-16.2c-0.1-0.6-0.4-1.1-0.9-1.5c-0.5-0.3-1.1-0.5-1.6-0.4
		c-0.6,0.1-1.1,0.4-1.4,0.9c-0.4,0.5-0.5,1-0.4,1.6l1.3,9.2C119.1,22.9,102.2,16,84.2,16c-18.1,0-35.2,7.1-48,19.9
		c-3.7,3.7-7,7.8-9.7,12.2c-0.3,0.5-0.4,1.1-0.3,1.7C26.4,50.3,26.8,50.7,27.3,51z"/>
</g>
</svg>
