<?xml version="1.0" encoding="utf-8"?>
<!-- Generator: Adobe Illustrator 22.1.0, SVG Export Plug-In . SVG Version: 6.00 Build 0)  -->
<svg version="1.1" id="Layer_1" xmlns="http://www.w3.org/2000/svg" xmlns:xlink="http://www.w3.org/1999/xlink" x="0px" y="0px"
	 viewBox="0 0 160 160" style="enable-background:new 0 0 160 160;" xml:space="preserve">
<style type="text/css">
	.st0{fill:#989898;}
	.st1{filter:url(#Adobe_OpacityMaskFilter);}
	.st2{fill:#FFFFFF;}
	.st3{mask:url(#mask-2_3_);}
</style>
<path class="st0" d="M132.1,96.7c-4-33.9-41.1-75.6-52.3-87.6c-0.3-0.3-0.7-0.6-1.2-0.5c-0.5,0-0.9,0.2-1.2,0.6
	C67,20.7,32.9,61.1,28,96.8c-2.7,19.2-0.1,33,7.9,42.2c8.2,9.5,22.2,14.1,42.7,14.1c20.8,0,35.8-5,44.5-14.7
	C131.2,129.1,134.3,115.1,132.1,96.7z M78.6,12.7c10.7,11.5,37.5,42.4,47.1,71c-5.5,5.4-13,7.2-20.6,7.2l1.2-7.3l6.8-5.5
	c0.7-0.6,0.8-1.6,0.3-2.3l-7.3-9.4c-0.5-0.7-1.6-0.8-2.3-0.3l-7.5,5.4l-16.1-4c-0.5-0.1-1,0-1.4,0.3L61.4,80.5
	c-0.2,0.1-0.3,0.3-0.5,0.5c-13.1-1.6-22.4,1.4-26.8,3.4C43.5,54.6,68.7,24,78.6,12.7z M99.1,73.7l5.4-3.9l5.3,6.8l-4.8,3.9l-1.2-1.3
	L99.1,73.7z M95.7,74.9l7.3,8.4l-1.2,7.6c-13.5-0.8-26.1-6.4-26.4-6.5c-3.5-1.2-6.8-2-10-2.6L80.1,71L95.7,74.9z M120.6,136.1
	c-8,9-22.2,13.6-42,13.6c-19.4,0-32.6-4.2-40.2-13c-7.4-8.5-9.7-21.4-7.2-39.6c0.4-2.8,1-5.7,1.7-8.5c0,0,0.1,0,0.1,0
	c0.2-0.1,16-9.8,41.1-1.2c0.9,0.4,15.6,6.9,30.7,6.9c7.9,0,15.8-1.8,21.9-7.1c1,3.3,1.7,6.7,2,9.9c1,8.7,0.8,16.4-0.6,22.9
	c-0.2,0.1-0.4,0.2-0.6,0.4c-14.7,18.1-47.5,0.8-47.8,0.6c-0.1,0-0.1-0.1-0.2-0.1c-16.6-6.1-30.2-2.3-37.7,1l-1.3-2.9l33.6-15.1
	l9.3,17.3c0.4,0.8,1.4,1.1,2.3,0.7c0.8-0.4,1.1-1.4,0.7-2.3l-10-18.7c-0.4-0.8-1.4-1.1-2.1-0.7l-10.4,4.7c-0.8-2.3-2.4-4.1-4.6-5.3
	c-2.2-1.1-4.8-1.4-7.2-0.6c-4.9,1.6-7.7,6.9-6.1,11.8c0.2,0.7,0.9,1.1,1.6,1.1c0.1,0,0.3,0,0.4-0.1l-10.3,4.6
	c-0.8,0.4-1.2,1.3-0.8,2.2l2,4.6c-2,1.1-3.1,1.9-3.3,2c-0.7,0.5-0.9,1.6-0.4,2.3c0.5,0.7,1.6,0.9,2.3,0.4
	c0.2-0.1,17.5-12.5,40.7-4.1c1.6,0.9,15.7,8.1,29.8,8.1c6.4,0,12.8-1.5,18.1-5.7C124.9,130.1,123,133.4,120.6,136.1z M49.3,109.9
	c-1-3.2,0.7-6.6,3.9-7.7c3.2-1,6.6,0.7,7.7,3.9c0,0,0,0.1,0.1,0.1l-12.5,5.6C49.1,111.5,49.5,110.7,49.3,109.9z"/>
</svg>
